<svg xmlns="http://www.w3.org/2000/svg" xmlns:xlink="http://www.w3.org/1999/xlink" id="Layer_1" x="0" y="0" version="1.1" viewBox="0 0 260 260" xml:space="preserve"><style>.st1{fill:none;stroke:#00bcd4;stroke-width:4}.st2{fill:#00bcd4}.st8{fill:#455a64}.st13{fill:#0288d1}</style><g id="system_x5F_integrators"><circle id="_x30_1_x5F_back" cx="130" cy="130" r="100" fill="#eaeaea"/><g id="connections"><path id="line_x5F_01_1_" d="M152.1 59.6h10.5v29.5" class="st1"/><path id="line_x5F_01" d="M145.8 55.2c2.4 0 4.4 2 4.4 4.4s-2 4.4-4.4 4.4-4.4-2-4.4-4.4c0-2.4 2-4.4 4.4-4.4m0-4c-4.6 0-8.4 3.8-8.4 8.4s3.8 8.4 8.4 8.4 8.4-3.8 8.4-8.4-3.8-8.4-8.4-8.4z" class="st2"/><path id="line_x5F_02" d="M172 25.6v66.5" class="st1"/><path id="circle_x5F_02" d="M172 13.9c2.4 0 4.4 2 4.4 4.4s-2 4.4-4.4 4.4-4.4-2-4.4-4.4 2-4.4 4.4-4.4m0-4c-4.6 0-8.4 3.8-8.4 8.4s3.8 8.4 8.4 8.4c4.6 0 8.4-3.8 8.4-8.4s-3.7-8.4-8.4-8.4z" class="st2"/><path id="line_x5F_03" d="M196.2 43.9l-14.7 8.3v39.9" class="st1"/><path id="circle_x5F_03" d="M201.6 36.1c2.4 0 4.4 2 4.4 4.4s-2 4.4-4.4 4.4-4.4-2-4.4-4.4 2-4.4 4.4-4.4m0-4c-4.6 0-8.4 3.8-8.4 8.4s3.8 8.4 8.4 8.4c4.6 0 8.4-3.8 8.4-8.4s-3.8-8.4-8.4-8.4z" class="st2"/></g><path id="gear_x5F_small" fill="#fb8c00" d="M228.1 144.7c-.2-.5-.1-1.2.2-1.7l6.7-8.6c.3-.4.4-1.1 0-1.6l-6.5-8.4c-.4-.4-1-.6-1.5-.4l-10.3 4.1c-.5.2-1.3.1-1.7-.2l-2.5-1.9c-.4-.3-.8-1-.7-1.5l1-10.9c0-.5-.3-1.1-.8-1.4l-10.1-3.7c-.5-.2-1.2.1-1.5.5l-6.4 9c-.3.4-1 .7-1.5.7l-3-.2c-.5 0-1.2-.4-1.4-.9l-5.1-9.8c-.2-.5-.9-.8-1.4-.7l-10.5 2.2c-.5.1-1 .7-1 1.2l-.5 10.9c0 .5-.2 1.1-.5 1.2l-.2.1c-1.4.6-3.1 1.6-3.1 1.6-.5.3-1.2.3-1.7 0l-9.6-5.5c-.5-.3-1.2-.2-1.6.2l-7.5 7.3c-.4.4-.4 1.1-.2 1.6l5.4 9.4c.3.5.3 1.2 0 1.7l-1.9 3.3c-.3.5-.9.9-1.4.9l-11.1.6c-.5 0-1.1.5-1.2 1l-2.4 9.9c-.1.5.2 1.2.7 1.4l9.6 5c.5.2.9.9.9 1.4l.2 4.6c0 .5-.3 1.2-.7 1.5l-9 6.4c-.4.3-.7 1-.5 1.5 0 0 1.9 6.5 3.6 10.1 0 0 .5 0 1-.1l10.8-1c.5-.1 1.2.3 1.5.7l3.1 4.3c.3.4.4 1.2.2 1.7l-4 10.2c-.2.5 0 1.2.4 1.5l7.6 5.8c.4.3 1.1.3 1.6-.1l8.5-6.7c.4-.3 1.2-.4 1.7-.2l5.3 2c.5.2 1 .7 1.1 1.3l2.1 10.7c.1.5.6 1 1.2 1.1l9.5.7c.5 0 1.1-.4 1.3-.9l3.6-10.3c.2-.5.8-1 1.3-1.1l5.4-1.3c.5-.1 1.2.1 1.6.4l7.5 7.8c.4.4 1.1.5 1.6.3 0 0 .3-.1.8-.4 3-1.4 7.5-4.4 7.5-4.4.4-.3.7-1 .6-1.5l-2.6-10.7c-.1-.5.1-1.3.5-1.6l3.5-3.7c.4-.4 1.1-.6 1.6-.5l10.5 2.5c.5.1 1.2-.2 1.4-.6l4.6-8.8c.2-.5.1-1.2-.3-1.6l-8-7.6c-.4-.4-.6-1.1-.5-1.6l.8-4.3c.1-.5.6-1.1 1.1-1.3l10.2-3.6c.5-.2.9-.8.9-1.3l-1-10.2c-.1-.5-.6-1-1.1-1.1l-10.9-2.1c-.5-.1-1.1-.6-1.3-1.1l-1.5-3.2zm-28.4 43.1c-14 6.7-30.8.7-37.4-13.3-6.7-14-.7-30.8 13.3-37.4 14-6.7 30.8-.7 37.4 13.3 6.6 14 .7 30.7-13.3 37.4z"/><path id="gear_x5F_small_x5F_inner_x5F_circle" fill="#ef6c00" d="M187.8 126.7v8c12.9 0 24.3 9.2 27 21.9 3.2 14.9-6.3 29.7-21.2 32.9-1.9.4-3.9.6-5.9.6-12.9 0-24.3-9.2-27.1-21.9-3.2-14.9 6.3-29.7 21.2-32.9 1.9-.4 3.9-.6 5.9-.6l.1-8m0 0c-2.5 0-5 .3-7.6.8-19.3 4.2-31.5 23.2-27.4 42.4 3.6 16.7 18.4 28.2 34.9 28.2 2.5 0 5-.3 7.6-.8 19.3-4.2 31.5-23.2 27.4-42.4-3.7-16.7-18.5-28.2-34.9-28.2z"/><path id="gear_x5F_big_3_" fill="#9bcb65" d="M120.9 114.2l.9-3.9c.1-.6.7-1.2 1.2-1.4l11.4-4c.6-.2 1-.8 1-1.4l-.6-11.2c-.1-.6-.6-1.1-1.2-1.3L122 88.8c-.6-.1-1.2-.7-1.4-1.2l-1.6-4.5c-.2-.5-.1-1.4.3-1.8l7.4-9.5c.4-.5.4-1.2.1-1.7l-6.3-8.8c-.4-.5-1.1-.7-1.7-.4l-11 4.4c-.5.2-1.4.1-1.8-.3l-4.4-3.4c-.5-.3-.8-1.1-.8-1.7l1.1-12c.1-.6-.3-1.3-.9-1.5 0 0-5.4-2.5-8.8-3.5-.7-.2-1-.3-1-.3-.6-.2-1.3.1-1.6.6l-6.9 9.6c-.3.5-1.1.8-1.7.7l-6.1-.5c-.6 0-1.3-.5-1.6-1L68 41.4c-.3-.5-1-.9-1.5-.8l-10.1 2.2c-.6.2-1 .8-1.1 1.3L54.7 56c0 .6-.5 1.3-1 1.5l-5.4 3c-.5.3-1.3.3-1.8 0l-10.3-5.9c-.5-.3-1.3-.2-1.7.2l-7.3 7.5c-.4.4-.5 1.2-.2 1.7l6 10.4c.3.5.3 1.3 0 1.8l-2.6 5.1c-.2.5-.9 1-1.5 1l-11.8.6c-.6 0-1.1.1-1.1.1-1.3 4.2-2.3 11.5-2.3 11.5-.1.6.3 1.3.8 1.5l10.7 5.5c.5.3 1 1 1 1.5l.5 5c.1.6-.2 1.3-.7 1.7l-9.6 6.9c-.5.3-.7 1.1-.5 1.6l4.1 10.3c.2.5.9.9 1.5.9l12.1-1.2c.6-.1 1.3.3 1.7.8l2.6 3.3c.4.4.5 1.3.3 1.8l-4.3 11c-.2.5 0 1.3.4 1.7l9.3 6.7c.5.3 1.3.3 1.7-.1l9.5-7.5c.5-.4 1.3-.5 1.8-.3 0 0 2 .8 3.6 1.3l.3.1c.3.1.6.6.7 1.2l2.3 11.7c.1.6.7 1.1 1.3 1.2l11.7.7c.6 0 1.2-.4 1.4-1l3.9-11.4c.2-.6.8-1.1 1.4-1.2l3.2-.7c.6-.1 1.4.1 1.8.5l8.3 8.7c.4.4 1.2.6 1.7.3l10.3-5.6c.5-.3.8-1 .7-1.6l-2.8-11.6c-.1-.6.1-1.4.5-1.8l2.5-2.4c.4-.4 1.2-.7 1.8-.5l11.8 2.8c.6.1 1.3-.2 1.6-.7l5.6-10.1c.3-.5.1-1.3-.3-1.7l-8.6-8.2c-.4 0-.6-.8-.4-1.4zm-16.5-3.4c-5.1 16.6-22.7 26-39.3 20.9s-26-22.7-20.9-39.3 22.7-26 39.3-20.9c16.6 5.1 26 22.6 20.9 39.3z"/><path id="gear_x5F_big_x5F_inner_x5F_circle" fill="#7cb342" d="M74.4 63.9v8c.6 0 1.3 0 1.9.1 7.9.5 15.1 4.1 20.3 10 5.2 5.9 7.8 13.6 7.3 21.5-1 15.5-14 27.7-29.5 27.7-.6 0-1.3 0-2-.1-7.9-.5-15.1-4.1-20.3-10s-7.8-13.6-7.3-21.5c1-15.5 14-27.7 29.5-27.7l.1-8m0 0c-19.7 0-36.2 15.3-37.5 35.2-1.3 20.7 14.4 38.6 35.1 40 .8.1 1.6.1 2.5.1 19.7 0 36.2-15.3 37.5-35.2 1.3-20.7-14.4-38.6-35.1-40-.9 0-1.7-.1-2.5-.1z"/><path id="stand_x5F_back" fill="#37474f" d="M109.1 178.2h42v15.7h-42z"/><path id="stand_x5F_bottom" d="M169 190.8H91c-1.6 0-3 1.3-3 3v.3c0 1.6 1.3 3 3 3h78c1.6 0 3-1.3 3-3v-.3c0-1.7-1.3-3-3-3z" class="st8"/><path id="frame" d="M197.5 178.2H62.6c-3.3 0-6-2.7-6-6V89.7c0-3.3 2.7-6 6-6h134.9c3.3 0 6 2.7 6 6v82.5c0 3.3-2.7 6-6 6z" class="st8"/><path id="display" fill="#4fc3f7" d="M196.7 175H63.4c-2 0-3.7-1.6-3.7-3.7V90.5c0-2 1.6-3.7 3.7-3.7h133.3c2 0 3.7 1.6 3.7 3.7v80.8c0 2.1-1.7 3.7-3.7 3.7z"/><path id="display_1_" fill="#81d4fa" d="M110.1 175H63.4c-2 0-3.7-1.6-3.7-3.7V90.5c0-2 1.6-3.7 3.7-3.7h97.1L110.1 175z"/><g id="inside_x5F_the_x5F_screen"><defs><path id="SVGID_1_" d="M196.7 175H63.4c-2 0-3.7-1.6-3.7-3.7V90.5c0-2 1.6-3.7 3.7-3.7h133.3c2 0 3.7 1.6 3.7 3.7v80.8c0 2.1-1.7 3.7-3.7 3.7z"/></defs><clipPath id="SVGID_2_"><use overflow="visible" xlink:href="#SVGID_1_"/></clipPath><path id="gear_x5F_small_1_" fill="#039be5" d="M228.1 144.7c-.2-.5-.1-1.2.2-1.7l6.7-8.6c.3-.4.4-1.1 0-1.6l-6.5-8.4c-.4-.4-1-.6-1.5-.4l-10.3 4.1c-.5.2-1.3.1-1.7-.2l-2.5-1.9c-.4-.3-.8-1-.7-1.5l1-10.9c0-.5-.3-1.1-.8-1.4l-10.1-3.7c-.5-.2-1.2.1-1.5.5l-6.4 9c-.3.4-1 .7-1.5.7l-3-.2c-.5 0-1.2-.4-1.4-.9l-5.1-9.8c-.2-.5-.9-.8-1.4-.7l-10.5 2.2c-.5.1-1 .7-1 1.2l-.5 10.9c0 .5-.2 1.1-.5 1.2l-.2.1c-1.4.6-3.1 1.6-3.1 1.6-.5.3-1.2.3-1.7 0l-9.6-5.5c-.5-.3-1.2-.2-1.6.2l-7.5 7.3c-.4.4-.4 1.1-.2 1.6l5.4 9.4c.3.5.3 1.2 0 1.7l-1.9 3.3c-.3.5-.9.9-1.4.9l-11.1.6c-.5 0-1.1.5-1.2 1l-2.4 9.9c-.1.5.2 1.2.7 1.4l9.6 5c.5.2.9.9.9 1.4l.2 4.6c0 .5-.3 1.2-.7 1.5l-9 6.4c-.4.3-.7 1-.5 1.5 0 0 1.9 6.5 3.6 10.1 0 0 .5 0 1-.1l10.8-1c.5-.1 1.2.3 1.5.7l3.1 4.3c.3.4.4 1.2.2 1.7l-4 10.2c-.2.5 0 1.2.4 1.5l7.6 5.8c.4.3 1.1.3 1.6-.1l8.5-6.7c.4-.3 1.2-.4 1.7-.2l5.3 2c.5.2 1 .7 1.1 1.3l2.1 10.7c.1.5.6 1 1.2 1.1l9.5.7c.5 0 1.1-.4 1.3-.9l3.6-10.3c.2-.5.8-1 1.3-1.1l5.4-1.3c.5-.1 1.2.1 1.6.4l7.5 7.8c.4.4 1.1.5 1.6.3 0 0 .3-.1.8-.4 3-1.4 7.5-4.4 7.5-4.4.4-.3.7-1 .6-1.5l-2.6-10.7c-.1-.5.1-1.3.5-1.6l3.5-3.7c.4-.4 1.1-.6 1.6-.5l10.5 2.5c.5.1 1.2-.2 1.4-.6l4.6-8.8c.2-.5.1-1.2-.3-1.6l-8-7.6c-.4-.4-.6-1.1-.5-1.6l.8-4.3c.1-.5.6-1.1 1.1-1.3l10.2-3.6c.5-.2.9-.8.9-1.3l-1-10.2c-.1-.5-.6-1-1.1-1.1l-10.9-2.1c-.5-.1-1.1-.6-1.3-1.1l-1.5-3.2zm-28.4 43.1c-14 6.7-30.8.7-37.4-13.3-6.7-14-.7-30.8 13.3-37.4 14-6.7 30.8-.7 37.4 13.3 6.6 14 .7 30.7-13.3 37.4z" clip-path="url(#SVGID_2_)"/><defs><path id="SVGID_3_" d="M196.7 175H63.4c-2 0-3.7-1.6-3.7-3.7V90.5c0-2 1.6-3.7 3.7-3.7h133.3c2 0 3.7 1.6 3.7 3.7v80.8c0 2.1-1.7 3.7-3.7 3.7z"/></defs><clipPath id="SVGID_4_"><use overflow="visible" xlink:href="#SVGID_3_"/></clipPath><g id="gear_x5F_small_x5F_inner_x5F_circle_1_" clip-path="url(#SVGID_4_)"><path d="M187.8 126.7v8c12.9 0 24.3 9.2 27 21.9 3.2 14.9-6.3 29.7-21.2 32.9-1.9.4-3.9.6-5.9.6-12.9 0-24.3-9.2-27.1-21.9-3.2-14.9 6.3-29.7 21.2-32.9 1.9-.4 3.9-.6 5.9-.6l.1-8m0 0c-2.5 0-5 .3-7.6.8-19.3 4.2-31.5 23.2-27.4 42.4 3.6 16.7 18.4 28.2 34.9 28.2 2.5 0 5-.3 7.6-.8 19.3-4.2 31.5-23.2 27.4-42.4-3.7-16.7-18.5-28.2-34.9-28.2z" class="st13"/></g><g><defs><path id="SVGID_5_" d="M196.7 175H63.4c-2 0-3.7-1.6-3.7-3.7V90.5c0-2 1.6-3.7 3.7-3.7h133.3c2 0 3.7 1.6 3.7 3.7v80.8c0 2.1-1.7 3.7-3.7 3.7z"/></defs><clipPath id="SVGID_6_"><use overflow="visible" xlink:href="#SVGID_5_"/></clipPath><path id="gear_x5F_big_1_" fill="#039be5" d="M120.9 114.2l.9-3.9c.1-.6.7-1.2 1.2-1.4l11.4-4c.6-.2 1-.8 1-1.4l-.6-11.2c-.1-.6-.6-1.1-1.2-1.3L122 88.8c-.6-.1-1.2-.7-1.4-1.2l-1.6-4.5c-.2-.5-.1-1.4.3-1.8l7.4-9.5c.4-.5.4-1.2.1-1.7l-6.3-8.8c-.4-.5-1.1-.7-1.7-.4l-11 4.4c-.5.2-1.4.1-1.8-.3l-4.4-3.4c-.5-.3-.8-1.1-.8-1.7l1.1-12c.1-.6-.3-1.3-.9-1.5 0 0-5.4-2.5-8.8-3.5-.7-.2-1-.3-1-.3-.6-.2-1.3.1-1.6.6l-6.9 9.6c-.3.5-1.1.8-1.7.7l-6.1-.5c-.6 0-1.3-.5-1.6-1L68 41.4c-.3-.5-1-.9-1.5-.8l-10.1 2.2c-.6.2-1 .8-1.1 1.3L54.7 56c0 .6-.5 1.3-1 1.5l-5.4 3c-.5.3-1.3.3-1.8 0l-10.3-5.9c-.5-.3-1.3-.2-1.7.2l-7.3 7.5c-.4.4-.5 1.2-.2 1.7l6 10.4c.3.5.3 1.3 0 1.8l-2.6 5.1c-.2.5-.9 1-1.5 1l-11.8.6c-.6 0-1.1.1-1.1.1-1.3 4.2-2.3 11.5-2.3 11.5-.1.6.3 1.3.8 1.5l10.7 5.5c.5.3 1 1 1 1.5l.5 5c.1.6-.2 1.3-.7 1.7l-9.6 6.9c-.5.3-.7 1.1-.5 1.6l4.1 10.3c.2.5.9.9 1.5.9l12.1-1.2c.6-.1 1.3.3 1.7.8l2.6 3.3c.4.4.5 1.3.3 1.8l-4.3 11c-.2.5 0 1.3.4 1.7l9.3 6.7c.5.3 1.3.3 1.7-.1l9.5-7.5c.5-.4 1.3-.5 1.8-.3 0 0 2 .8 3.6 1.3l.3.1c.3.1.6.6.7 1.2l2.3 11.7c.1.6.7 1.1 1.3 1.2l11.7.7c.6 0 1.2-.4 1.4-1l3.9-11.4c.2-.6.8-1.1 1.4-1.2l3.2-.7c.6-.1 1.4.1 1.8.5l8.3 8.7c.4.4 1.2.6 1.7.3l10.3-5.6c.5-.3.8-1 .7-1.6l-2.8-11.6c-.1-.6.1-1.4.5-1.8l2.5-2.4c.4-.4 1.2-.7 1.8-.5l11.8 2.8c.6.1 1.3-.2 1.6-.7l5.6-10.1c.3-.5.1-1.3-.3-1.7l-8.6-8.2c-.4 0-.6-.8-.4-1.4zm-16.5-3.4c-5.1 16.6-22.7 26-39.3 20.9s-26-22.7-20.9-39.3 22.7-26 39.3-20.9c16.6 5.1 26 22.6 20.9 39.3z" clip-path="url(#SVGID_6_)"/></g><g><defs><path id="SVGID_7_" d="M196.7 175H63.4c-2 0-3.7-1.6-3.7-3.7V90.5c0-2 1.6-3.7 3.7-3.7h133.3c2 0 3.7 1.6 3.7 3.7v80.8c0 2.1-1.7 3.7-3.7 3.7z"/></defs><clipPath id="SVGID_8_"><use overflow="visible" xlink:href="#SVGID_7_"/></clipPath><g id="gear_x5F_big_x5F_inner_x5F_circle_2_" clip-path="url(#SVGID_8_)"><path d="M74.4 63.9v8c.6 0 1.3 0 1.9.1 7.9.5 15.1 4.1 20.3 10 5.2 5.9 7.8 13.6 7.3 21.5-1 15.5-14 27.7-29.5 27.7-.6 0-1.3 0-2-.1-7.9-.5-15.1-4.1-20.3-10s-7.8-13.6-7.3-21.5c1-15.5 14-27.7 29.5-27.7l.1-8m0 0c-19.7 0-36.2 15.3-37.5 35.2-1.3 20.7 14.4 38.6 35.1 40 .8.1 1.6.1 2.5.1 19.7 0 36.2-15.3 37.5-35.2 1.3-20.7-14.4-38.6-35.1-40-.9 0-1.7-.1-2.5-.1z" class="st13"/></g></g></g></g></svg>